# xmcd CD database file
#
# Track frame offsets:
#	182
#	13817
#	24655
#	47355
#	57907
#	67700
#	81095
#	94532
#	106872
#	117595
#	130377
#	142377
#	154215
#	164380
#	174200
#	186790
#
# Disc length: 2649 seconds
#
# Revision: 0
# Processed by: cddbd v1.4PL0 Copyright (c) Steve Scherf et al.
# Submitted via: CDex 1.50beta9
#
DISCID=d10a5710
DTITLE=Kenny Ball - Midnight in Moscow
DYEAR=1900
DGENRE=Jazz
TTITLE0=Midnight In Moscow
TTITLE1=Rondo
TTITLE2=Saturday Night
TTITLE3=Some Day (You'll Be Sorry)
TTITLE4=I Still Love You All
TTITLE5=Sukiyaki
TTITLE6=The Pay Off
TTITLE7=When I'm Sixty Four
TTITLE8=Samantha
TTITLE9=The Green Leaves Of Summer
TTITLE10=So Do It
TTITLE11=Casablanca
TTITLE12=Acapulco 1922
TTITLE13=Tifty Five Days At Peking
TTITLE14=The March Of The Siamese Children
TTITLE15=Hello Dolly
EXTD=
EXTT0=
EXTT1=
EXTT2=
EXTT3=
EXTT4=
EXTT5=
EXTT6=
EXTT7=
EXTT8=
EXTT9=
EXTT10=
EXTT11=
EXTT12=
EXTT13=
EXTT14=
EXTT15=
PLAYORDER=
